<svg width="203" height="280" viewBox="0 0 203 280" fill="none" xmlns="http://www.w3.org/2000/svg">
<path d="M4.79938 279.524C-2.9549 256.44 1.7453 230.524 17.0314 210.146C34.0716 187.433 63.0572 176.528 88.2432 162.188C100.198 155.369 111.76 147.515 120.408 137.494C124.714 132.5 128.16 127.036 130.601 121.186C133.171 114.989 134.668 108.531 135.8 102.063C138.077 88.9406 139.045 75.6038 144.169 62.9497C148.89 51.2922 156.43 40.4654 166.076 31.332C186.722 11.7698 216.839 1.04621 247.06 2.08644C250.905 2.22047 254.763 2.55032 258.577 2.98112C259.299 3.06757 259.554 2.11284 258.818 2.0054C229.037 -2.66514 196.486 5.93753 173.567 23.3361C162.996 31.3691 154.262 41.1997 148.009 52.1C144.842 57.6018 142.321 63.3803 140.502 69.3122C138.507 75.8554 137.402 82.5511 136.41 89.2399C134.398 102.783 132.779 116.771 125.14 129.046C118.039 140.457 106.8 149.47 94.8003 156.98C70.1234 172.423 40.1486 182.396 20.9226 203.748C3.80297 222.765 -3.38315 248.157 1.71459 271.613C2.31424 274.371 3.11241 277.084 4.05891 279.756C4.18561 280.174 4.93861 279.941 4.79938 279.524Z" fill="#FFCD38"/>
</svg>
